# xmcd
#
# Track frame offsets:
#	150
#	13391
#	29351
#	41011
#	60727
#
# Disc length: 980 seconds
#
# Revision: 1
# Processed by: cddbd v1.4b42PL1 Copyright (c) Steve Scherf et al.
# Submitted via: audiograbber 1.80
#
DISCID=3f03d205
DTITLE=Lost Dogs - Real Men Cry (Prerelease)
DYEAR=1900
DGENRE=
TTITLE0=A Certain Love
TTITLE1=Wild Ride
TTITLE2=No Shadow Of Turning
TTITLE3=In The Distance
TTITLE4=Dust On The Bible
EXTD=Selected unmastered rough mizes from the upcoming record "Real Men Cry"
EXTT0=
EXTT1=
EXTT2=
EXTT3=
EXTT4=
PLAYORDER=
